<?xml version="1.0" encoding="utf-8"?>
<!-- Generator: Adobe Illustrator 25.2.1, SVG Export Plug-In . SVG Version: 6.00 Build 0)  -->
<svg width="24" height="24" xmlns="http://www.w3.org/2000/svg">
<style type="text/css">
	.st0{fill:#5F6368;}
	.st1{fill:#FFFFFF;}
</style>
<path class="st0" d="M21 10c-1.1 0-2 .9-2 2v3H5v-3c0-1.1-.89-2-2-2s-2 .9-2 2v5c0 1.1.9 2 2 2h18c1.1 0 2-.9 2-2v-5c0-1.1-.9-2-2-2zm-3-5H6c-1.1 0-2 .9-2 2v2.15c1.16.41 2 1.52 2 2.81V14h12v-2.03c0-1.3.84-2.4 2-2.81V7c0-1.1-.9-2-2-2z"/>
<!-- <circle class="st0" cx="7" cy= "7" r="2"></circle> -->
</svg>
