<?xml version="1.0" encoding="utf-8"?>
<!-- Generator: Adobe Illustrator 25.2.1, SVG Export Plug-In . SVG Version: 6.00 Build 0)  -->
<svg width="24" height="24" xmlns="http://www.w3.org/2000/svg">
<style type="text/css">
	.st0{fill:#5F6368;}
	.st1{fill:#FFFFFF;}
</style>
<path class="st0" d="M 17.90625 2.96875 C 15.648438 2.964844 14.503906 4.640625 14.21875 5.3125 C 14.222656 4.308594 13.222656 3.128906 12.0625 3.125 L 8.3125 3.125 L 8.3125 11.1875 L 11.8125 11.1875 C 13.21875 11.1875 14.21875 9.949219 14.21875 8.90625 C 14.539063 9.5625 15.648438 11.222656 17.90625 11.21875 C 20.164063 11.21875 22 9.351563 22 7.09375 C 22 4.785156 20.164063 2.96875 17.90625 2.96875 Z M 2 3.125 L 2 11.1875 L 4.25 11.1875 L 4.25 8.0625 L 5.6875 8.0625 L 5.6875 11.1875 L 7.875 11.1875 L 7.875 3.125 L 5.6875 3.125 L 5.6875 6.125 L 4.25 6.125 L 4.25 3.125 Z M 10.40625 4.90625 L 11.53125 4.90625 C 11.855469 4.90625 12.09375 5.230469 12.09375 5.59375 C 12.09375 5.957031 11.851563 6.28125 11.53125 6.28125 L 10.40625 6.28125 Z M 17.90625 5.03125 C 19.039063 5.03125 19.96875 5.960938 19.96875 7.09375 C 19.96875 8.226563 19.039063 9.125 17.90625 9.125 C 16.773438 9.125 15.84375 8.226563 15.84375 7.09375 C 15.84375 5.957031 16.773438 5.03125 17.90625 5.03125 Z M 17.65625 5.84375 C 17.085938 5.960938 16.65625 6.488281 16.65625 7.09375 C 16.65625 7.785156 17.214844 8.34375 17.90625 8.34375 C 18.597656 8.34375 19.15625 7.785156 19.15625 7.09375 C 19.15625 6.402344 18.597656 5.84375 17.90625 5.84375 C 17.820313 5.84375 17.738281 5.828125 17.65625 5.84375 Z M 13.8125 6.5625 C 13.761719 6.792969 13.75 7.457031 13.8125 7.6875 C 13.644531 7.425781 13.257813 7.125 13 7.09375 C 13.253906 7.0625 13.664063 6.75 13.8125 6.5625 Z M 10.40625 7.9375 L 11.53125 7.9375 C 11.855469 7.9375 12.09375 8.261719 12.09375 8.625 C 12.09375 8.988281 11.855469 9.3125 11.53125 9.3125 L 10.40625 9.3125 Z M 8.03125 12.875 C 5.78125 12.875 3.96875 14.683594 3.96875 16.9375 C 3.96875 19.1875 5.78125 21.03125 8.03125 21.03125 C 9.96875 21.03125 11.582031 19.652344 12 17.84375 C 12.417969 19.652344 14.03125 21.03125 15.96875 21.03125 C 18.21875 21.03125 20.03125 19.1875 20.03125 16.9375 C 20.03125 14.683594 18.21875 12.875 15.96875 12.875 C 13.867188 12.875 12.160156 14.460938 11.9375 16.5 L 7.65625 16.5 L 7.65625 18.0625 L 9.9375 18.0625 C 9.425781 19.539063 8.03125 19.28125 8.03125 19.28125 C 6.902344 19.261719 6.375 18.34375 6.375 18.34375 C 5.433594 16.703125 6.375 15.5 6.375 15.5 C 6.804688 14.742188 7.9375 14.65625 7.9375 14.65625 C 9.308594 14.65625 9.78125 15.65625 9.78125 15.65625 L 11.90625 15.65625 C 11.375 14.027344 9.839844 12.875 8.03125 12.875 Z M 15.96875 14.90625 C 17.097656 14.90625 18.03125 15.839844 18.03125 16.96875 C 18.03125 18.097656 17.097656 19 15.96875 19 C 14.839844 19 13.9375 18.097656 13.9375 16.96875 C 13.9375 15.839844 14.839844 14.90625 15.96875 14.90625 Z M 15.96875 15.6875 C 15.277344 15.6875 14.71875 16.246094 14.71875 16.9375 C 14.71875 17.628906 15.277344 18.1875 15.96875 18.1875 C 16.660156 18.1875 17.21875 17.628906 17.21875 16.9375 C 17.21875 16.246094 16.660156 15.6875 15.96875 15.6875 Z"/>
</svg>
