<?xml version="1.0" encoding="utf-8"?>
<!-- Generator: Adobe Illustrator 25.2.1, SVG Export Plug-In . SVG Version: 6.00 Build 0)  -->
<svg width="24" height="24" xmlns="http://www.w3.org/2000/svg">
<style type="text/css">
	.st0{fill:#5F6368;}
	.st1{fill:#FFFFFF;}
</style>
<path class="st0" d="M5.5 22v-7.5H4V9c0-1.1.9-2 2-2h3c1.1 0 2 .9 2 2v5.5H9.5V22h-4zM18 22v-6h3l-2.54-7.63C18.18 7.55 17.42 7 16.56 7h-.12c-.86 0-1.63.55-1.9 1.37L12 16h3v6h3zM7.5 6c1.11 0 2-.89 2-2s-.89-2-2-2-2 .89-2 2 .89 2 2 2zm9 0c1.11 0 2-.89 2-2s-.89-2-2-2-2 .89-2 2 .89 2 2 2z"/>
<!-- <circle class="st0" cx="7" cy= "7" r="2"></circle> -->
</svg>
